<svg id="Filled" height="512" viewBox="0 0 512 512" width="512" xmlns="http://www.w3.org/2000/svg"><path d="m296 288v160c0 17.67-60.89 32-136 32s-136-14.33-136-32v-160z" fill="#95573a"/><ellipse cx="160" cy="288" fill="#c48669" rx="136" ry="32"/><path d="m470.365 79.145-364.154 100.191-12.742-46.277 364.154-100.192a24 24 0 0 1 29.51 16.768 24 24 0 0 1 -16.768 29.51z" fill="#95573a"/><path d="m488 56.02a24 24 0 0 1 -17.63 23.12l-115.71 31.84-12.2-46.42 115.16-31.69a24.023 24.023 0 0 1 30.38 23.15z" fill="none"/><path d="m354.66 110.98-248.45 68.36-12.74-46.28 248.99-68.5z" fill="#c3c6c7"/><path d="m246.92 238.32s-25.03 25.33-64.7 36.26-74.13 1.97-74.13 1.97l-3.93-31.23c2.73.47 39.86 6.58 69.57-1.6 24.01-6.61 50.78-24.56 61.47-32.2z" fill="#c3c6c7"/><path d="m235.2 211.52c-10.69 7.64-37.46 25.59-61.47 32.2-29.71 8.18-66.84 2.07-69.57 1.6l-14-111.35 99.17-27.31z" fill="#dadcde"/><path d="m119.5 88.89h32a16 16 0 0 1 16 16v16a0 0 0 0 1 0 0h-64a0 0 0 0 1 0 0v-16a16 16 0 0 1 16-16z" fill="#c3c6c7" transform="matrix(.964 -.265 .265 .964 -22.983 39.734)"/><path d="m119.423 366.573c13.102.947 26.754 1.427 40.577 1.427a513.688 513.688 0 0 0 73.165-4.933 8 8 0 0 0 -2.33-15.83 497.238 497.238 0 0 1 -70.835 4.763c-13.44 0-26.7-.466-39.423-1.386a8 8 0 0 0 -1.154 15.959z"/><path d="m184.335 407.5a8 8 0 1 0 -.67-15.986c-7.744.325-15.706.49-23.665.49-35.642 0-69.087-3.239-94.174-9.122a8 8 0 0 0 -3.652 15.578c26.248 6.15 60.991 9.54 97.826 9.54 8.182 0 16.37-.17 24.335-.5z"/><path d="m215.153 429.215a524.148 524.148 0 0 1 -55.153 2.785 515.435 515.435 0 0 1 -63-3.695 8 8 0 1 0 -2 15.875 531.818 531.818 0 0 0 65 3.82 540.083 540.083 0 0 0 56.847-2.875 8 8 0 0 0 -1.694-15.91z"/><path d="m62 478.415c26.271 6.185 61.074 9.585 98 9.585s71.729-3.4 98-9.585c30.954-7.284 46-17.232 46-30.415v-160c0-10.245-9.033-18.456-27.615-25.1-9.654-3.451-21.771-6.415-35.711-8.775a121.548 121.548 0 0 0 11.935-10.18 8 8 0 0 0 1.639-8.829l-34.44-78.736 252.681-69.523a32 32 0 0 0 -16.989-61.7l-265.622 73.079.122.464a8 8 0 0 0 -2.8.255l-11.019 3.034-2.124-7.713a24.027 24.027 0 0 0 -29.503-16.776l-30.854 8.5a24 24 0 0 0 -16.768 29.51l2.124 7.713-11.016 3.033a8 8 0 0 0 -5.814 8.711l14.659 116.626c-21.43 2.595-39.757 6.475-53.27 11.306-18.582 6.645-27.615 14.856-27.615 25.101v160c0 13.183 15.047 23.131 46 30.415zm175.293-242.136a151.083 151.083 0 0 1 -20.356 14.606l-.09-.01-.008.069a148.144 148.144 0 0 1 -36.739 15.918c-28.294 7.79-54.1 4.842-64.791 2.992l-1.96-15.588a194.77 194.77 0 0 0 25.46 1.7c11.4 0 24.486-1.071 37.043-4.529 24.132-6.646 45.432-21.862 55.142-29.564zm222.453-195.699a16 16 0 0 1 8.5 30.852l-107.992 29.711-8.5-30.852zm-123.414 33.956 8.5 30.852-131.5 36.18-12.958-29.624zm-218.383 26.889 30.851-8.495a8.012 8.012 0 0 1 9.837 5.59l2.123 7.712-46.277 12.742-2.124-7.713a8.008 8.008 0 0 1 5.59-9.836zm66.827 14.79 39.556 90.433c-5.828 4.9-28 22.554-52.73 29.363-24.632 6.782-52.788 2.986-60.328 1.764l-12.31-97.932zm-152.776 171.816c.683-3.546 17.883-14.645 66.88-20.564l1.267 10.08a8 8 0 0 0 5.928 6.745c.918.238 14.722 3.727 34.826 3.727a164.221 164.221 0 0 0 43.444-5.731 162.839 162.839 0 0 0 36.073-14.908c49.584 5.9 66.925 17.1 67.585 20.58-.3 1.606-7.215 8.915-35.607 15.327-24.881 5.613-57.696 8.713-92.396 8.713s-67.515-3.1-92.4-8.713c-28.334-6.4-35.277-13.687-35.6-15.237zm0 140.1c7.426 3.916 17.461 7.346 30.174 10.327a8 8 0 1 0 3.652-15.578c-26.963-6.324-33.543-13.38-33.826-14.88v-59.853q17.709 9.438 54.835 14.92a8.09 8.09 0 0 0 1.175.086 8 8 0 0 0 1.155-15.916c-45.292-6.663-56.757-17.06-57.165-19.237v-19.871q11.088 5.847 30 10.286c26.271 6.185 61.074 9.585 98 9.585s71.729-3.4 98-9.585q18.945-4.458 30-10.286v19.84c-.063.2-2.456 6.337-26.149 12.946a8 8 0 1 0 4.3 15.412 111.954 111.954 0 0 0 21.849-8.22v19.862c-.439 2.235-11.93 12.614-57.165 19.268a8 8 0 0 0 1.155 15.916 8.09 8.09 0 0 0 1.175-.086q37.088-5.456 54.835-14.92v19.823c-.363 1.835-8.434 9.961-41.568 16.585a8 8 0 1 0 3.136 15.689q24.878-4.973 38.432-12.214v19.94c-.323 1.625-7.266 8.917-35.6 15.317-24.885 5.618-57.7 8.713-92.4 8.713s-67.515-3.1-92.4-8.713c-28.388-6.412-35.3-13.721-35.6-15.287z"/><path d="m450.692 67.967a8 8 0 1 0 -9.837-5.59 8 8 0 0 0 9.837 5.59z"/></svg>